<svg width="212pt" height="855pt"
 viewBox="0.00 0.00 212.07 855.00" xmlns="http://www.w3.org/2000/svg" xmlns:xlink="http://www.w3.org/1999/xlink">
<g id="graph0" class="graph" transform="scale(1 1) rotate(0) translate(4 851)">
<title>%3</title>
<polygon fill="white" stroke="transparent" points="-4,4 -4,-851 208.07,-851 208.07,4 -4,4"/>
<!-- user_mmap -->
<g id="node1" class="node">
<title>user_mmap</title>
<ellipse fill="#e3f2fd" stroke="black" cx="135.07" cy="-829" rx="34.76" ry="18"/>
<text text-anchor="middle" x="135.07" y="-826.2" font-family="SimHei" font-size="11.00">mmap()</text>
</g>
<!-- sys_mmap -->
<g id="node2" class="node">
<title>sys_mmap</title>
<ellipse fill="#fff3e0" stroke="black" cx="135.07" cy="-747" rx="48.21" ry="18"/>
<text text-anchor="middle" x="135.07" y="-744.2" font-family="SimHei" font-size="11.00">sys_mmap()</text>
</g>
<!-- user_mmap&#45;&gt;sys_mmap -->
<g id="edge1" class="edge">
<title>user_mmap&#45;&gt;sys_mmap</title>
<path fill="none" stroke="black" d="M135.07,-810.64C135.07,-800.3 135.07,-786.94 135.07,-775.22"/>
<polygon fill="black" stroke="black" points="138.57,-775.05 135.07,-765.05 131.57,-775.05 138.57,-775.05"/>
<text text-anchor="middle" x="149.07" y="-785.8" font-family="SimHei" font-size="9.00">syscall</text>
</g>
<!-- do_mmap -->
<g id="node3" class="node">
<title>do_mmap</title>
<ellipse fill="#fff3e0" stroke="black" cx="135.07" cy="-674" rx="46.11" ry="18"/>
<text text-anchor="middle" x="135.07" y="-671.2" font-family="SimHei" font-size="11.00">do_mmap()</text>
</g>
<!-- sys_mmap&#45;&gt;do_mmap -->
<g id="edge2" class="edge">
<title>sys_mmap&#45;&gt;do_mmap</title>
<path fill="none" stroke="black" d="M135.07,-728.81C135.07,-720.79 135.07,-711.05 135.07,-702.07"/>
<polygon fill="black" stroke="black" points="138.57,-702.03 135.07,-692.03 131.57,-702.03 138.57,-702.03"/>
</g>
<!-- vma_create -->
<g id="node4" class="node">
<title>vma_create</title>
<ellipse fill="#e8f5e8" stroke="black" cx="135.07" cy="-592" rx="36.86" ry="18"/>
<text text-anchor="middle" x="135.07" y="-589.2" font-family="SimHei" font-size="11.00">VMA创建</text>
</g>
<!-- do_mmap&#45;&gt;vma_create -->
<g id="edge3" class="edge">
<title>do_mmap&#45;&gt;vma_create</title>
<path fill="none" stroke="black" d="M135.07,-655.64C135.07,-645.3 135.07,-631.94 135.07,-620.22"/>
<polygon fill="black" stroke="black" points="138.57,-620.05 135.07,-610.05 131.57,-620.05 138.57,-620.05"/>
<text text-anchor="middle" x="153.57" y="-630.8" font-family="SimHei" font-size="9.00">VMA分配</text>
</g>
<!-- user_access -->
<g id="node5" class="node">
<title>user_access</title>
<ellipse fill="#e3f2fd" stroke="black" cx="135.07" cy="-510" rx="37.07" ry="18"/>
<text text-anchor="middle" x="135.07" y="-507.2" font-family="SimHei" font-size="11.00">内存访问</text>
</g>
<!-- vma_create&#45;&gt;user_access -->
<g id="edge4" class="edge">
<title>vma_create&#45;&gt;user_access</title>
<path fill="none" stroke="black" d="M135.07,-573.64C135.07,-563.3 135.07,-549.94 135.07,-538.22"/>
<polygon fill="black" stroke="black" points="138.57,-538.05 135.07,-528.05 131.57,-538.05 138.57,-538.05"/>
<text text-anchor="middle" x="158.07" y="-548.8" font-family="SimHei" font-size="9.00">mmap返回</text>
</g>
<!-- page_fault -->
<g id="node6" class="node">
<title>page_fault</title>
<ellipse fill="#fff9c4" stroke="black" cx="98.07" cy="-428" rx="37.07" ry="18"/>
<text text-anchor="middle" x="98.07" y="-425.2" font-family="SimHei" font-size="11.00">缺页异常</text>
</g>
<!-- user_access&#45;&gt;page_fault -->
<g id="edge5" class="edge">
<title>user_access&#45;&gt;page_fault</title>
<path fill="none" stroke="black" d="M127.23,-492.03C122.24,-481.25 115.68,-467.08 110.05,-454.9"/>
<polygon fill="black" stroke="black" points="113.16,-453.27 105.78,-445.67 106.8,-456.21 113.16,-453.27"/>
<text text-anchor="middle" x="127.57" y="-466.8" font-family="SimHei" font-size="9.00">缺页</text>
</g>
<!-- filemap_fault -->
<g id="node7" class="node">
<title>filemap_fault</title>
<ellipse fill="#fce4ec" stroke="black" cx="83.07" cy="-346" rx="55.15" ry="18"/>
<text text-anchor="middle" x="83.07" y="-343.2" font-family="SimHei" font-size="11.00">filemap_fault()</text>
</g>
<!-- page_fault&#45;&gt;filemap_fault -->
<g id="edge6" class="edge">
<title>page_fault&#45;&gt;filemap_fault</title>
<path fill="none" stroke="black" d="M94.89,-410.03C92.94,-399.6 90.39,-386.01 88.16,-374.11"/>
<polygon fill="black" stroke="black" points="91.58,-373.4 86.3,-364.22 84.7,-374.69 91.58,-373.4"/>
<text text-anchor="middle" x="110.07" y="-384.8" font-family="SimHei" font-size="9.00">fault处理</text>
</g>
<!-- page_cache -->
<g id="node8" class="node">
<title>page_cache</title>
<ellipse fill="#fce4ec" stroke="black" cx="80.07" cy="-264" rx="50.52" ry="18"/>
<text text-anchor="middle" x="80.07" y="-261.2" font-family="SimHei" font-size="11.00">页面缓存查找</text>
</g>
<!-- filemap_fault&#45;&gt;page_cache -->
<g id="edge7" class="edge">
<title>filemap_fault&#45;&gt;page_cache</title>
<path fill="none" stroke="black" d="M82.42,-327.64C82.03,-317.3 81.53,-303.94 81.09,-292.22"/>
<polygon fill="black" stroke="black" points="84.59,-291.91 80.71,-282.05 77.59,-292.17 84.59,-291.91"/>
<text text-anchor="middle" x="100.57" y="-302.8" font-family="SimHei" font-size="9.00">查找缓存</text>
</g>
<!-- io_read -->
<g id="node9" class="node">
<title>io_read</title>
<ellipse fill="#f3e5f5" stroke="black" cx="33.07" cy="-182" rx="33.15" ry="18"/>
<text text-anchor="middle" x="33.07" y="-179.2" font-family="SimHei" font-size="11.00">I/O读取</text>
</g>
<!-- page_cache&#45;&gt;io_read -->
<g id="edge8" class="edge">
<title>page_cache&#45;&gt;io_read</title>
<path fill="none" stroke="black" d="M58.64,-247.52C52.42,-242.02 46.2,-235.35 42.07,-228 39.02,-222.57 37,-216.26 35.65,-210.12"/>
<polygon fill="black" stroke="black" points="39.08,-209.4 33.98,-200.12 32.18,-210.56 39.08,-209.4"/>
<text text-anchor="middle" x="65.07" y="-220.8" font-family="SimHei" font-size="9.00">缓存未命中</text>
</g>
<!-- page_map -->
<g id="node10" class="node">
<title>page_map</title>
<ellipse fill="#e8f5e8" stroke="black" cx="102.07" cy="-100" rx="37.07" ry="18"/>
<text text-anchor="middle" x="102.07" y="-97.2" font-family="SimHei" font-size="11.00">页表映射</text>
</g>
<!-- page_cache&#45;&gt;page_map -->
<g id="edge9" class="edge">
<title>page_cache&#45;&gt;page_map</title>
<path fill="none" stroke="blue" stroke-width="2" d="M84.37,-245.99C85.7,-240.3 87.08,-233.9 88.07,-228 93.83,-193.93 97.76,-154.31 99.96,-128.5"/>
<polygon fill="blue" stroke="blue" stroke-width="2" points="103.46,-128.6 100.8,-118.34 96.49,-128.02 103.46,-128.6"/>
<text text-anchor="middle" x="114.57" y="-179.8" font-family="SimHei" font-size="9.00">缓存命中</text>
</g>
<!-- io_read&#45;&gt;page_map -->
<g id="edge10" class="edge">
<title>io_read&#45;&gt;page_map</title>
<path fill="none" stroke="black" d="M39.55,-164.1C43.48,-155.16 49.09,-144.35 56.07,-136 60.57,-130.62 66.04,-125.57 71.62,-121.07"/>
<polygon fill="black" stroke="black" points="73.91,-123.73 79.76,-114.9 69.68,-118.15 73.91,-123.73"/>
<text text-anchor="middle" x="72.07" y="-138.8" font-family="SimHei" font-size="9.00">I/O完成</text>
</g>
<!-- complete -->
<g id="node11" class="node">
<title>complete</title>
<ellipse fill="#e3f2fd" stroke="black" cx="135.07" cy="-18" rx="37.07" ry="18"/>
<text text-anchor="middle" x="135.07" y="-15.2" font-family="SimHei" font-size="11.00">访问完成</text>
</g>
<!-- page_map&#45;&gt;complete -->
<g id="edge11" class="edge">
<title>page_map&#45;&gt;complete</title>
<path fill="none" stroke="black" d="M106.5,-82.05C108.94,-73.5 112.25,-63.05 116.07,-54 117.39,-50.88 118.9,-47.67 120.48,-44.52"/>
<polygon fill="black" stroke="black" points="123.72,-45.88 125.31,-35.41 117.53,-42.61 123.72,-45.88"/>
<text text-anchor="middle" x="134.57" y="-56.8" font-family="SimHei" font-size="9.00">映射建立</text>
</g>
<!-- complete&#45;&gt;user_access -->
<g id="edge12" class="edge">
<title>complete&#45;&gt;user_access</title>
<path fill="none" stroke="green" stroke-dasharray="5,2" d="M145.91,-35.4C155.19,-51.06 167.07,-75.66 167.07,-99 167.07,-429 167.07,-429 167.07,-429 167.07,-448.32 158.92,-468.52 150.85,-483.78"/>
<polygon fill="green" stroke="green" points="147.75,-482.16 145.91,-492.6 153.85,-485.59 147.75,-482.16"/>
<text text-anchor="middle" x="185.57" y="-261.8" font-family="SimHei" font-size="9.00">重试访问</text>
</g>
</g>
</svg>